<?xml version="1.0" standalone="no"?>
<!DOCTYPE svg PUBLIC "-//W3C//DTD SVG 1.1//EN" "http://www.w3.org/Graphics/SVG/1.1/DTD/svg11.dtd" >
<!--
2013-9-30: Created.
-->
<svg>
<metadata>
Created by iconfont
</metadata>
<defs>

<font id="iconfont" horiz-adv-x="1024" >
  <font-face
    font-family="iconfont"
    font-weight="500"
    font-stretch="normal"
    units-per-em="1024"
    ascent="896"
    descent="-128"
  />
    <missing-glyph />
    
    <glyph glyph-name="v-sfp" unicode="&#59170;" d="M95.36-32v832H928v-832H95.36z m768.64 768H159.36v-704H864v704z m-512-576h-64v448h64v-448z m394.24 448v-64h-192v-128h192v-256h-256v448h256z m-192-384h128v128h-128v-128z"  horiz-adv-x="1024" />

    
    <glyph glyph-name="v-fp" unicode="&#59171;" d="M160 736h704.64v-704H160v704z m-64 64v-832h832.64v832H96z m245.76-128h320v-64h-320v64z m0 0h64v-64h-64v64z m0 0h64v-320h-64v320z m0-256h320v-64h-320v64z m256 256h64v-576h-64v576z m-256-512h320v-64h-320v64z"  horiz-adv-x="1024" />

    
    <glyph glyph-name="v-sfp1" unicode="&#59176;" d="M96-32v832h832.64v-832H96z m768.64 768H160v-704h704.64v704z m-448.64-448h128v192h-64v64h64v64h64v-448h-64v64h-192v128h64v-64z m64 64h-64v128h64v-128z"  horiz-adv-x="1024" />

    
    <glyph glyph-name="daochu" unicode="&#59017;" d="M986.247892 529.425539a34.628259 34.628259 0 0 0-36.5277 36.5277V771.750299L502.913369 316.615161a41.495467 41.495467 0 0 0-58.444319 58.444319L898.581413 822.889079H693.514906a36.5277 36.5277 0 0 0 0 73.055399h292.952152a34.628259 34.628259 0 0 0 36.5277-36.5277v-293.60965a34.701315 34.701315 0 0 0-36.746866-36.381589zM365.276997 822.889079H110.094487a34.482149 34.482149 0 0 1-36.5277-36.5277v-804.339948a34.482149 34.482149 0 0 1 36.5277-36.527699h802.586618a34.482149 34.482149 0 0 1 36.527699 36.527699v255.693898a36.5277 36.5277 0 1 0 73.0554 0v-292.65993a78.60761 78.60761 0 0 0-73.0554-73.055399H73.493732a78.534554 78.534554 0 0 0-73.0554 73.055399V822.889079a73.055399 73.055399 0 0 0 73.0554 73.055399H365.276997a36.5277 36.5277 0 0 0 0-73.055399z"  horiz-adv-x="1024" />

    
    <glyph glyph-name="bianjixiugai" unicode="&#59018;" d="M1020.154556 493.705383v-424.209997a196.149064 196.149064 0 0 0-196.725785-197.494745H197.366585a196.149064 196.149064 0 0 0-196.725784 197.494745V698.505255A196.084984 196.084984 0 0 0 197.366585 895.93592h422.287595a36.589714 36.589714 0 0 0 0-73.115349H197.366585a119.060752 119.060752 0 0 1-124.315317-124.315316v-636.314996a117.45875 117.45875 0 0 1 124.315317-117.01019h633.751794a123.033715 123.033715 0 0 1 123.674515 124.315317v424.209997a26.785465 26.785465 0 0 0 28.836027 36.589714 34.603232 34.603232 0 0 0 36.525635-36.589714zM371.664348 245.01067a45.496843 45.496843 0 0 1 29.476828-7.305127 42.86956 42.86956 0 0 1 28.836027 7.305127l583.128546 585.115028a36.269314 36.269314 0 0 1-51.264048 51.264048L379.353955 296.274718a43.574441 43.574441 0 0 1-7.689607-51.264048z"  horiz-adv-x="1025" />

    
    <glyph glyph-name="CPU" unicode="&#59019;" d="M987.428571 457.142857h-73.142857a36.571429 36.571429 0 0 0 0 73.142857h73.142857a36.571429 36.571429 0 0 0 0-73.142857z m-73.142857-146.285714h73.142857a36.571429 36.571429 0 0 0 0-73.142857h-73.142857a36.571429 36.571429 0 0 0 0 73.142857z m-36.571428-146.285714a146.285714 146.285714 0 0 0-146.285715-146.285715H292.571429a146.285714 146.285714 0 0 0-146.285715 146.285715V603.428571a146.285714 146.285714 0 0 0 146.285715 146.285715h438.857142a146.285714 146.285714 0 0 0 146.285715-146.285715v-438.857142z m-73.142857 365.714285a146.285714 146.285714 0 0 1-146.285715 146.285715H365.714286a146.285714 146.285714 0 0 1-146.285715-146.285715v-292.571428a146.285714 146.285714 0 0 1 146.285715-146.285715h292.571428a146.285714 146.285714 0 0 1 146.285715 146.285715V530.285714zM365.714286 530.285714h292.571428v-292.571428H365.714286V530.285714z m73.142857-219.428571h146.285714V457.142857H438.857143v-146.285714z m219.428571-329.142857v-73.142857a36.571429 36.571429 0 0 0-73.142857 0v73.142857a36.571429 36.571429 0 0 0 73.142857 0z m-219.428571 0v-73.142857a36.571429 36.571429 0 0 0-73.142857 0v73.142857a36.571429 36.571429 0 0 0 73.142857 0zM109.714286 237.714286h-73.142857a36.571429 36.571429 0 0 0 0 73.142857h73.142857a36.571429 36.571429 0 0 0 0-73.142857z m0 219.428571h-73.142857a36.571429 36.571429 0 0 0 0 73.142857h73.142857a36.571429 36.571429 0 0 0 0-73.142857zM365.714286 786.285714v73.142857a36.571429 36.571429 0 0 0 73.142857 0v-73.142857a36.571429 36.571429 0 0 0-73.142857 0z m219.428571 0v73.142857a36.571429 36.571429 0 0 0 73.142857 0v-73.142857a36.571429 36.571429 0 0 0-73.142857 0z"  horiz-adv-x="1024" />

    
    <glyph glyph-name="daoru" unicode="&#59020;" d="M950.995718-128H76.803296a78.271735 78.271735 0 0 0-72.946631 72.946631V236.14958a36.473315 36.473315 0 1 0 72.946631 0v-254.729634a34.43081 34.43081 0 0 1 36.473315-36.473315h801.391685a34.43081 34.43081 0 0 1 36.473315 36.473315V782.446898a34.357863 34.357863 0 0 1-36.473315 36.473315H659.865715a36.473315 36.473315 0 1 0 0 72.946631h291.20295a72.946631 72.946631 0 0 0 72.946631-72.946631v-874.192422a78.344681 78.344681 0 0 0-73.019578-72.727791zM550.299876 309.096211h-291.786523a36.473315 36.473315 0 1 0 0 72.946631h204.250566L11.078382 826.433716a41.287793 41.287793 0 0 0 58.357304 58.357305l444.390874-451.685538v204.250566a36.473315 36.473315 0 1 0 72.946631 0v-291.786522a34.357863 34.357863 0 0 0-36.473315-36.473316z"  horiz-adv-x="1029" />

    
    <glyph glyph-name="dizhixinxi" unicode="&#59021;" d="M985.674469 442.296792a264.87203 264.87203 0 0 0-107.458346-103.428658 338.173973 338.173973 0 0 0-160.547885-36.650971l-287.195222 0.639633V-128H322.375037V895.924523l108.097979-0.639633 287.195222 0.639633a335.295624 335.295624 0 0 0 160.547885-37.034751 265.959406 265.959406 0 0 0 107.458346-104.068291 337.34245 337.34245 0 0 0 0-312.524689z m-124.088804 291.4168a141.358895 141.358895 0 0 1-107.458346 53.857099H430.473016V410.570995h323.654303a141.358895 141.358895 0 0 1 107.458346 53.857099 190.738564 190.738564 0 0 1 0 269.285498zM0 895.412817h107.458346v-1023.412817H0V895.412817z"  horiz-adv-x="1024" />

    
    <glyph glyph-name="changshang" unicode="&#59022;" d="M1000.256-105.024h-166.784a24.256 24.256 0 0 0-23.744 24.256v838.4L684.8 848.64 307.2 744.448V646.4a24.96 24.96 0 0 0-23.744-24.32 24.384 24.384 0 0 0-23.744 24.32V762.048a21.12 21.12 0 0 0 16.704 21.76L684.352 895.04a31.232 31.232 0 0 0 19.2-4.48l143.68-103.552a38.848 38.848 0 0 0 8.32-19.84v-830.912h142.4v2.56a28.928 28.928 0 0 0 26.304-19.84 24.256 24.256 0 0 0-24-24zM574.976 703.552l132.8-103.552a49.28 49.28 0 0 0 12.8-30.72v-678.784a17.344 17.344 0 0 0-17.344-17.92H21.44a24.896 24.896 0 0 0 0 49.216h49.408V507.264a33.28 33.28 0 0 0 17.344 24.32l456.704 176.384a30.848 30.848 0 0 0 30.08-4.416zM474.88 436.992a15.872 15.872 0 0 1-17.344 16.576L200.96 373.696a29.376 29.376 0 0 1-17.344-27.456v-33.28c0-14.016 8.32-22.336 17.344-19.2l256.576 79.872a28.736 28.736 0 0 1 17.344 27.52v35.776z m0-142.528a14.912 14.912 0 0 1-17.344 17.216l-256.576-83.2a31.296 31.296 0 0 1-17.344-28.736v-35.2a16.448 16.448 0 0 1 17.344-17.216l256.576 83.712a30.656 30.656 0 0 1 17.344 28.736V294.4z m0-137.472a16.448 16.448 0 0 1-17.344 17.28L200.96 92.48a30.144 30.144 0 0 1-17.344-28.16v-35.776a15.936 15.936 0 0 1 17.344-16.64l256.576 81.856a28.736 28.736 0 0 1 17.344 28.096v35.136z"  horiz-adv-x="1024" />

    
    <glyph glyph-name="neicun" unicode="&#59024;" d="M443.977143 823.661714h384a125.001143 125.001143 0 0 0 123.611428-125.878857v-627.712a125.001143 125.001143 0 0 0-123.611428-125.805714H196.022857a125.001143 125.001143 0 0 0-123.611428 125.805714v258.925714a83.675429 83.675429 0 0 0 29.257142 61.805715l215.771429 178.468571a12.214857 12.214857 0 0 1 4.388571 9.216V697.782857A123.757714 123.757714 0 0 0 443.977143 823.661714z m0-68.681143a57.051429 57.051429 0 0 1-57.782857-57.197714v-121.636571a83.529143 83.529143 0 0 0-29.257143-61.732572L141.165714 335.872a12.507429 12.507429 0 0 1-5.12-9.142857v-258.925714a57.051429 57.051429 0 0 1 57.782857-57.197715h634.148572a56.393143 56.393143 0 0 1 57.051428 57.197715V695.515429a56.393143 56.393143 0 0 1-57.051428 57.197714H443.977143v2.267428z m32.182857-77.897142a33.938286 33.938286 0 0 0 36.571429-32.036572v-373.028571a36.571429 36.571429 0 0 0-73.142858 0v373.028571a33.938286 33.938286 0 0 0 36.571429 32.036572z m147.017143 0a33.938286 33.938286 0 0 0 36.571428-32.036572v-373.028571a36.571429 36.571429 0 0 0-73.142857 0v373.028571a33.938286 33.938286 0 0 0 36.571429 32.036572z m147.017143 0a33.938286 33.938286 0 0 0 36.571428-32.036572v-373.028571a36.571429 36.571429 0 0 0-73.142857 0v373.028571a33.938286 33.938286 0 0 0 36.571429 32.036572z"  horiz-adv-x="1024" />

    
    <glyph glyph-name="sousuo" unicode="&#59026;" d="M816.49576 127.606548l195.721586-196.086737a34.032186 34.032186 0 0 0 0-49.003427 34.470369 34.470369 0 0 0-48.930396 0l-195.721586 196.013707a35.492795 35.492795 0 0 0 0 49.076457 34.61643 34.61643 0 0 0 48.930396 0z m-684.295245 0a449.940556 449.940556 0 1 0 635.364849 0 450.451769 450.451769 0 0 0-635.364849 0z m586.434452 588.187184a380.634666 380.634666 0 1 1 0-539.183757 379.320118 379.320118 0 0 1 0 538.964665z"  horiz-adv-x="1024" />

    
    <glyph glyph-name="wangqia" unicode="&#59027;" d="M804.571429 164.571429H219.428571a145.554286 145.554286 0 0 0-73.142857 20.260571V-18.285714a36.571429 36.571429 0 0 0-73.142857 0v804.571428a36.571429 36.571429 0 0 0 73.142857 0v-56.832A145.554286 145.554286 0 0 0 219.428571 749.714286h585.142858a146.285714 146.285714 0 0 0 146.285714-146.285715v-292.571428a146.285714 146.285714 0 0 0-146.285714-146.285714z m73.142857 438.857142a73.142857 73.142857 0 0 1-73.142857 73.142858H219.428571a73.142857 73.142857 0 0 1-73.142857-73.142858v-292.571428a73.142857 73.142857 0 0 1 73.142857-73.142857h585.142858a73.142857 73.142857 0 0 1 73.142857 73.142857V603.428571zM512 457.142857H438.857143V530.285714h73.142857V603.428571h219.428571v-219.428571H512V457.142857zM365.714286 384a73.142857 73.142857 0 1 0 73.142857 73.142857 73.142857 73.142857 0 0 0-73.142857-73.142857z m146.285714-256v-36.571429h73.142857v36.571429a36.571429 36.571429 0 0 0 73.142857 0v-36.571429h73.142857v36.571429a36.571429 36.571429 0 0 0 73.142858 0v-73.142857a36.571429 36.571429 0 0 0-36.571429-36.571429h-292.571429a36.571429 36.571429 0 0 0-36.571428 36.571429v73.142857a36.571429 36.571429 0 0 0 73.142857 0z"  horiz-adv-x="1024" />

    
    <glyph glyph-name="shebei" unicode="&#59028;" d="M798.376125 432.924098L540.012482 881.22339a33.190775 33.190775 0 0 1-55.38191 0l-258.555498-448.299292a31.975698 31.975698 0 0 1 27.754906-48.091451h516.919142a31.975698 31.975698 0 0 1 27.627003 48.091451z m-489.164235 15.987849L512.257576 801.156241l203.045685-352.244294h-406.091371zM224.476289 320.305688a224.149646 224.149646 0 1 1 223.82989-223.82989 224.213598 224.213598 0 0 1-223.82989 223.82989z m0-384.219993a159.878492 159.878492 0 1 0 159.878493 159.878492 159.878492 159.878492 0 0 0-159.878493-159.878492z m789.991607 374.883089a31.975698 31.975698 0 0 1-22.638795 9.336904h-383.708381a31.975698 31.975698 0 0 1-22.574844-9.336904 31.975698 31.975698 0 0 1-9.400855-22.638795v-384.347895a31.975698 31.975698 0 0 1 31.975699-31.975699h383.708381a31.975698 31.975698 0 0 1 31.975699 31.975699V288.329989a31.975698 31.975698 0 0 1-9.400856 22.638795z m0 0"  horiz-adv-x="1024" />

    
    <glyph glyph-name="shanchu" unicode="&#59029;" d="M800 13.76a63.296 63.296 0 0 0-62.08-64H288a62.848 62.848 0 0 0-62.08 64v678.4h574.08v-678.4zM350.72 806.72a12.8 12.8 0 0 0 12.8 12.8h299.52a12.8 12.8 0 0 0 12.8-12.8V768H350.72v38.4z m636.8-38.4h-236.8v38.4A88.896 88.896 0 0 1 663.04 896H363.52a88.448 88.448 0 0 1-87.68-89.28V768H38.4a38.4 38.4 0 0 1 0-76.8h112v-677.44a143.296 143.296 0 0 1 40.32-99.584 135.616 135.616 0 0 1 97.28-41.28h449.92a136.704 136.704 0 0 1 97.28 41.28 143.296 143.296 0 0 1 40.32 99.584v678.4h112a37.824 37.824 0 0 1 37.12 38.4 37.12 37.12 0 0 1-37.12 37.632zM512.64 65.536a37.888 37.888 0 0 1 37.76 38.4v409.6a37.44 37.44 0 1 1-74.88 0v-409.6a37.76 37.76 0 0 1 37.12-38.4m-174.72 0a37.76 37.76 0 0 1 37.12 38.4v409.6a37.44 37.44 0 1 1-74.88 0v-409.6a38.72 38.72 0 0 1 37.76-38.4m350.08 0a37.888 37.888 0 0 1 37.76 38.4v409.6a37.888 37.888 0 0 1-37.76 38.4 38.4 38.4 0 0 1-37.76-38.4v-409.6a38.4 38.4 0 0 1 37.76-38.4"  horiz-adv-x="1024" />

    
    <glyph glyph-name="jiedianmingcheng" unicode="&#59030;" d="M742.860429 384.460544a230.399885 230.399885 0 1 0-230.399885 230.399885 230.399885 230.399885 0 0 0 230.399885-230.399885z m-69.427165 0.256a161.075119 161.075119 0 1 1-160.87032-161.27992 161.228719 161.228719 0 0 1 160.87032 161.27992zM0.4608 376.882948a516.249342 516.249342 0 0 0 114.892743 330.291034 44.646378 44.646378 0 0 0 26.060787 18.995191 35.020782 35.020782 0 0 0 36.659181-16.383992 33.843183 33.843183 0 0 0-2.713598-39.06558 445.439777 445.439777 0 0 1-70.092765-113.407944 443.545378 443.545378 0 0 1-2.508799-339.40463 432.281384 432.281384 0 0 1 67.379166-113.151943 36.966382 36.966382 0 0 0 9.881595-32.921584 33.177583 33.177583 0 0 0-24.729587-26.111987 32.102384 32.102384 0 0 0-34.508783 10.239995 467.250966 467.250966 0 0 0-60.41597 89.087955 501.452549 501.452549 0 0 0-55.859172 178.790311c-2.406399 20.47999-3.071998 40.95998-4.044798 53.299173z m1023.692288 15.359992a516.300542 516.300542 0 0 0-114.995142-330.751835 44.339178 44.339178 0 0 0-25.036788-18.63679 34.867183 34.867183 0 0 0-37.324781 15.820792 33.945583 33.945583 0 0 0 3.020798 39.93598 442.418979 442.418979 0 0 1 63.692768 471.807764 429.209385 429.209385 0 0 1-58.87997 93.747153 36.915182 36.915182 0 0 0-9.881595 32.460784 33.228783 33.228783 0 0 0 24.371188 26.367987 31.999984 31.999984 0 0 0 34.969582-10.239995 457.420571 457.420571 0 0 0 54.425573-78.079961 502.527749 502.527749 0 0 0 61.849569-189.798305c2.201599-20.07039 2.815999-40.24318 3.788798-52.735974zM512.460544-128a523.468538 523.468538 0 0 0-248.115076 64.665568 34.815983 34.815983 0 0 0 32.767984 61.439969 483.430158 483.430158 0 0 1 83.558358-35.481582 442.777379 442.777379 0 0 1 342.169429 33.331183 41.318379 41.318379 0 0 0 29.286385 6.604797 35.020782 35.020782 0 0 0 27.443186-29.388786 35.430382 35.430382 0 0 0-17.766391-35.071982 499.14855 499.14855 0 0 0-188.671905-61.439969c-20.17279-2.303999-40.44798-3.071998-60.67197-4.454398z m0 1023.999488a513.894143 513.894143 0 0 0 248.012676-63.897568 34.457583 34.457583 0 0 0 16.383992-41.267179 35.020782 35.020782 0 0 0-49.459175-19.86559c-20.47999 9.983995-40.95998 20.07039-62.054369 28.108785a429.106985 429.106985 0 0 1-179.763111 26.572787 439.65418 439.65418 0 0 1-179.19991-49.919975 85.145557 85.145557 0 0 0-16.076792-7.577596 34.559983 34.559983 0 0 0-25.599987 63.590368A467.916566 467.916566 0 0 0 371.865414 876.441098 511.590144 511.590144 0 0 0 512.460544 895.999488z"  horiz-adv-x="1024" />

    
    <glyph glyph-name="xinzeng" unicode="&#59032;" d="M918.820571 348.525714h-370.834285v-371.712a60.342857 60.342857 0 0 0-36.571429-68.022857 59.684571 59.684571 0 0 0-36.571428 67.876572V348.525714H104.96a59.611429 59.611429 0 0 0-67.730286 36.571429 60.269714 60.269714 0 0 0 67.876572 36.571428h369.810285V792.795429a43.885714 43.885714 0 1 0 73.142858 0v-371.273143h370.907428a43.885714 43.885714 0 1 0-0.146286-72.996572z"  horiz-adv-x="1024" />

    
    <glyph glyph-name="zuzhijigouzong" unicode="&#59033;" d="M804.571429-128v219.428571h73.142857V310.272H585.142857V91.428571h73.142857v-219.428571H365.714286v219.428571h73.142857V310.272H146.285714V91.428571h73.142857v-219.428571H0v219.428571h73.142857V383.561143h365.714286v73.142857h146.285714v-73.142857h365.714286V91.428571h73.142857v-219.428571h-219.428571zM658.285714 457.142857H365.714286a146.285714 146.285714 0 0 0-146.285715 146.285714V749.714286a146.285714 146.285714 0 0 0 146.285715 146.285714h292.571428a146.285714 146.285714 0 0 0 146.285715-146.285714v-146.285715a146.285714 146.285714 0 0 0-146.285715-146.285714zM585.142857 822.857143H438.857143a146.285714 146.285714 0 0 1 0-292.571429h146.285714a146.285714 146.285714 0 0 1 0 292.571429z"  horiz-adv-x="1024" />

    
    <glyph glyph-name="yingpan" unicode="&#59034;" d="M776.777143 749.056H247.954286L25.6 395.776a154.550857 154.550857 0 0 1-25.6-61.586286v-224.182857a93.110857 93.110857 0 0 1 95.085714-91.062857h835.291429a92.964571 92.964571 0 0 1 94.354286 91.062857V334.189714a156.891429 156.891429 0 0 1-24.868572 61.586286zM292.571429 676.571429h438.857142l146.285715-219.428572H146.285714z m658.285714-543.012572a42.788571 42.788571 0 0 0-43.885714-41.398857H115.565714a42.057143 42.057143 0 0 0-43.154285 41.398857V347.428571a42.203429 42.203429 0 0 0 43.154285 41.472H906.971429a42.788571 42.788571 0 0 0 43.885714-41.472v-214.089142z m-109.714286 179.419429h-72.411428a36.571429 36.571429 0 0 1 0-73.142857h72.411428a36.571429 36.571429 0 1 1 0 73.142857z m-203.337143 2.340571H166.034286a44.690286 44.690286 0 0 1 0-75.117714h471.771428a44.690286 44.690286 0 0 1 0 75.117714z"  horiz-adv-x="1024" />

    
    <glyph glyph-name="pingtai" unicode="&#59035;" d="M537.6 119.808a58.688 58.688 0 0 0-51.2 0.512c-150.4 65.728-300.8 130.496-451.2 195.712-11.52 4.992-23.04 11.072-33.92 16.64v20.416a1185.216 1185.216 0 0 0 122.24 54.72 115.2 115.2 0 0 0 54.4-13.504l0.64-6.848-96.64-42.88c7.68-4.416 12.8-8.192 18.56-10.688 131.2-56.704 261.76-113.472 392.96-169.28a47.296 47.296 0 0 1 33.28-1.408c134.4 57.152 268.8 115.2 402.56 173.44 3.84 1.6 7.04 3.84 14.08 7.744l-97.92 43.584a72.384 72.384 0 0 0 81.92 11.456c30.08-17.664 63.36-31.04 95.36-46.336v-20.672c-56.96-25.6-113.92-51.648-171.52-76.8-104.32-45.312-209.28-90.048-313.6-135.808z m1.92 182.592a53.44 53.44 0 0 0-54.4 0c-151.68 77.248-303.36 153.6-455.04 230.4a275.2 275.2 0 0 0-28.8 19.584v20.48a269.312 269.312 0 0 0 28.8 19.968c105.6 53.44 211.2 106.176 316.16 160C398.72 779.264 449.92 806.848 501.76 833.92h20.48c7.04-4.352 14.08-9.28 21.12-12.8l441.6-222.976a342.592 342.592 0 0 0 37.76-24.768v-20.48a260.288 260.288 0 0 0-28.8-19.968c-151.68-77.248-303.36-153.344-454.4-230.528z m-360.96-88.256v-7.808l-99.2-43.776c100.48-43.392 196.48-84.8 291.84-126.144 41.6-17.856 82.56-35.968 124.16-53.12a39.68 39.68 0 0 1 26.24-3.072c139.52 59.456 279.04 119.808 423.68 182.208l-100.48 44.8a69.952 69.952 0 0 0 81.28 11.904c31.36-17.088 64.64-30.016 96.64-44.8v-20.48a330.304 330.304 0 0 0-32.64-18.688c-149.76-64.832-299.52-129.088-449.28-194.24a64 64 0 0 0-55.68-0.768c-149.12 65.28-298.88 129.536-448.64 194.368-12.16 5.312-23.68 12.8-35.2 19.2v20.48a1073.408 1073.408 0 0 0 118.4 51.2 136.832 136.832 0 0 0 58.88-11.264z"  horiz-adv-x="1024" />

    
    <glyph glyph-name="jinyong" unicode="&#59036;" d="M1024.084432 389.723185a511.901293 511.901293 0 1 0-184.686523 388.029713 35.143951 35.143951 0 0 0 21.693796-8.894456 33.336135 33.336135 0 0 0 5.495762-13.450154A503.440712 503.440712 0 0 0 1024.084432 389.723185zM84.019902 389.723185a433.875937 433.875937 0 1 1 747.423614 298.578958l-533.088901-533.088902a36.156328 36.156328 0 0 0-51.125048 51.125048l529.617894 529.617894A431.995808 431.995808 0 0 1 84.019902 389.723185z"  horiz-adv-x="1035" />

    
    <glyph glyph-name="qiyong" unicode="&#59037;" d="M512-128a512 512 0 1 0 512 512 512 512 0 0 0-512-512zM512 822.857143a438.857143 438.857143 0 1 1 438.857143-438.857143 438.857143 438.857143 0 0 1-438.857143 438.857143z m321.097143-375.296l-310.345143-310.272a36.571429 36.571429 0 0 0-51.712 0L264.192 344.137143a36.571429 36.571429 0 0 0 51.712 51.712l181.028571-181.028572 284.452572 284.452572a36.571429 36.571429 0 0 0 51.712-51.712z"  horiz-adv-x="1024" />

    
    <glyph glyph-name="xiazai" unicode="&#59038;" d="M1014.439455-124.350937H73.711068a78.381869 78.381869 0 0 0-72.981255 72.981256V239.971492a36.490628 36.490628 0 1 0 72.981255 0v-254.850546a34.447153 34.447153 0 0 1 36.490628-36.490627H985.246953a34.447153 34.447153 0 0 1 36.490628 36.490627V273.761813a36.490628 36.490628 0 1 0 72.981256 0v-317.176538a85.825957 85.825957 0 0 0-80.279382-80.936212z m-0.58385 0H1021.737581z m0 0c-23.645927-4.305894-34.082246-0.729813-0.291925-0.145963z m-440.879766 232.372318a36.855534 36.855534 0 0 0-53.714204 0L304.477799 313.68256a33.498396 33.498396 0 0 0 0 51.524767 36.928515 36.928515 0 0 0 53.714204 0l150.341387-143.919037L503.935571 854.473665a43.058941 43.058941 0 0 0 85.97192 0L583.850046 221.142328l150.633312 144.283942a37.001497 37.001497 0 0 0 53.787186 0 33.498396 33.498396 0 0 0 0-51.524766z"  horiz-adv-x="1094" />

    
    <glyph glyph-name="guanbi" unicode="&#59039;" d="M988.886161 802.474834L569.028562 382.365824l419.01956-419.01956a69.808659 69.808659 0 0 0 25.979212-83.803912 69.054423 69.054423 0 0 0-84.641951 25.811605l-418.18152 419.01956-419.857599-419.01956a68.13258 68.13258 0 0 0-83.803912-25.895409 69.641051 69.641051 0 0 0 25.979213 83.803912l419.019559 419.01956L32.683526 802.81005a69.724855 69.724855 0 0 0-25.979213 83.803912 68.383992 68.383992 0 0 0 83.803912-25.895409L511.203863 440.106719 931.061462 860.299534a68.467796 68.467796 0 0 0 83.803912 25.895408 69.641051 69.641051 0 0 0-25.979213-83.720108z"  horiz-adv-x="1024" />

    
    <glyph glyph-name="excel" unicode="&#59040;" d="M950.381714 36.388571h-327.972571v73.142858H768v109.714285h-145.590857v36.571429H768v109.714286h-145.590857v38.107428H768v109.714286h-145.590857v34.925714H768V659.382857h-145.590857v73.142857H1024v-695.222857h-73.618286z m0 622.226286h-145.590857v-111.104h145.590857V658.614857z m0-146.029714h-145.590857v-109.714286h145.590857v109.714286z m0-147.638857h-145.590857v-109.714286h145.590857v109.714286z m0-146.029715h-145.590857v-109.714285h145.590857v109.714285zM0 755.419429L585.142857 841.142857v-914.285714L0 12.580571V755.419429z m36.571429-713.142858L548.571429-36.571429v841.142858L36.571429 725.723429v-683.446858z m325.083428 183.881143L287.488 351.085714a128.621714 128.621714 0 0 0-7.497143 17.152h-1.060571q-0.438857-1.755429-7.716572-17.371428l-76.288-124.708572H142.628571l110.372572 166.692572L151.442286 558.08h52.48l65.572571-114.870857a225.133714 225.133714 0 0 0 11.593143-23.552h0.841143a274.285714 274.285714 0 0 0 12.653714 24.649143L363.154286 558.08h49.042285l-103.68-164.571429 105.179429-167.350857H361.654857z"  horiz-adv-x="1024" />

    
    <glyph glyph-name="chedao" unicode="&#59041;" d="M0-128L146.285714 896h731.428572l146.285714-1024H0zM825.490286 822.857143H198.509714L73.142857-54.857143h877.714286zM437.248 310.857143h144.603429v-293.595429H437.248V310.857143z m0 437.467428h144.603429V457.142857H437.248V748.105143z"  horiz-adv-x="1024" />

    
    <glyph glyph-name="qiakou" unicode="&#59043;" d="M73.142857 822.857143v-950.857143H0V896h1024v-73.142857H73.142857z m365.714286-292.571429H365.714286v-73.142857H292.571429V530.285714H219.428571V749.714286h219.428572v-219.428572z m438.857143 0h-73.142857v-73.142857h-73.142858V530.285714H658.285714V749.714286h219.428572v-219.428572z"  horiz-adv-x="1024" />

    
    <glyph glyph-name="guanlian" unicode="&#59044;" d="M940.48 456.32l-107.52-107.904a31.36 31.36 0 0 0-44.16 44.48l110.72 111.104a191.36 191.36 0 0 1-19.2 285.632 193.6 193.6 0 0 1-253.44-22.208L458.56 599.168a192.576 192.576 0 0 1 63.36-320.576 30.848 30.848 0 0 0 22.4-22.208 32.384 32.384 0 0 0-44.16-28.544A233.92 233.92 0 0 0 395.2 300.8a259.2 259.2 0 0 0 22.4 349.184l170.88 171.392a254.528 254.528 0 0 0 384-32 260.608 260.608 0 0 0-32-333.056zM144.96-22.912a193.6 193.6 0 0 1 253.44 22.208l168.32 168.192a194.624 194.624 0 0 1 18.56 260.288 190.08 190.08 0 0 1-81.92 60.288 30.976 30.976 0 0 0-22.4 22.272 32.448 32.448 0 0 0 44.16 28.544 233.6 233.6 0 0 0 104.96-73.024 259.136 259.136 0 0 0-22.4-349.12l-170.88-171.392a254.464 254.464 0 0 0-384 32 261.184 261.184 0 0 0 31.36 333.248l108.16 107.904a31.36 31.36 0 0 0 44.16-44.416L125.76 262.976a191.36 191.36 0 0 1 19.2-285.888z"  horiz-adv-x="1024" />

    
    <glyph glyph-name="zhongzhimima" unicode="&#59045;" d="M666.22501 460.786752a102.781687 102.781687 0 0 0 102.397696-102.397696v-153.596544a102.717689 102.717689 0 0 0-102.397696-102.397696h-307.193088a102.717689 102.717689 0 0 0-102.397696 102.397696V358.389056a102.781687 102.781687 0 0 0 102.397696 102.397696V563.184448a153.596544 153.596544 0 1 0 306.553102 0 25.599424 25.599424 0 0 0-51.198848 0 102.397696 102.397696 0 1 1-204.795392 0v-102.397696h256.634226z m-358.391936-102.397696v-153.596544a48.382911 48.382911 0 0 1 51.198848-51.198848h307.193088a48.638906 48.638906 0 0 1 51.198848 51.198848V358.389056a48.318913 48.318913 0 0 1-51.198848 51.198848h-307.193088a48.254914 48.254914 0 0 1-51.198848-51.198848z m204.795392-486.389056A511.98848 511.98848 0 1 0 895.97984 723.180848V793.579264a24.191456 24.191456 0 0 0 25.599424 25.599424 24.703444 24.703444 0 0 0 26.23941-25.599424V639.98272h-0.639986 0.639986a24.767443 24.767443 0 0 0-26.23941-25.599424h-152.956558a25.599424 25.599424 0 0 0 0 51.198848h108.797552A464.373552 464.373552 0 0 1 512.628466 844.778112 460.789632 460.789632 0 1 1 972.778112 383.98848a25.599424 25.599424 0 1 0 51.198849 0 513.33245 513.33245 0 0 0-511.348495-511.98848z"  horiz-adv-x="1024" />

    
    <glyph glyph-name="wifi" unicode="&#59046;" d="M1015.819171 580.421818a42.728727 42.728727 0 0 0-60.043636-9.309091 750.778182 750.778182 0 0 1-887.621819 0 43.008 43.008 0 1 0-50.269091 69.818182 837.166545 837.166545 0 0 0 988.625455 0 43.566545 43.566545 0 0 0 9.309091-60.509091zM512.197353 570.181818a603.927273 603.927273 0 0 0 357.934545-117.76 43.054545 43.054545 0 0 0-25.134545-77.730909 41.890909 41.890909 0 0 0-25.6 7.912727 518.376727 518.376727 0 0 1-614.865455 0 43.008 43.008 0 0 0-50.269091 69.818182A603.927273 603.927273 0 0 0 512.197353 570.181818z m0-232.727273a374.877091 374.877091 0 0 0 222.021818-72.610909 43.147636 43.147636 0 0 0 9.309091-60.509091 42.728727 42.728727 0 0 0-60.043637-9.30909 289.326545 289.326545 0 0 1-343.04 0 43.054545 43.054545 0 0 0-60.043636 9.30909 43.566545 43.566545 0 0 0 9.309091 60.509091A377.297455 377.297455 0 0 0 512.197353 337.454545z m0-202.472727a84.712727 84.712727 0 1 0-84.712728-84.712727A84.340364 84.340364 0 0 0 512.197353 134.981818z"  horiz-adv-x="1024" />

    
    <glyph glyph-name="shexiangji" unicode="&#59047;" d="M742.826667 121.813333a64.64 64.64 0 0 0-62.293334 0l-628.48 388.266667a64.384 64.384 0 0 0-20.906666 85.333333l107.52 185.173334a61.098667 61.098667 0 0 0 83.626666 21.333333s267.093333-167.253333 801.706667-505.6zM194.56 755.413333a6.741333 6.741333 0 0 1-10.666667-3.413333l-107.52-185.173333a6.954667 6.954667 0 0 1 3.413334-10.666667l628.48-387.84h10.24l204.8 131.413333z m-125.013333-590.933333h190.293333l58.453333 73.813333-280.32 179.2 20.906667 32 636.16-409.173333 107.093333 64 17.066667-28.586667-125.013333-78.506666-331.52 212.48-78.08-98.56H69.546667v-153.173334H0v359.68h69.546667v-153.173333z"  horiz-adv-x="1024" />

    
    <glyph glyph-name="GPS" unicode="&#59048;" d="M914.694976 140.670115a38.146472 38.146472 0 0 0-30.763284-14.868921 41.735522 41.735522 0 0 0-32.301448 69.217389A373.414995 373.414995 0 0 1 324.039924 721.070739a41.786794 41.786794 0 0 0-59.475682 4.101771 42.248243 42.248243 0 0 0 4.101771 59.475682 460.628905 460.628905 0 0 0 624.494664-22.04702 455.758052 455.758052 0 0 0 21.534299-621.931057z m-156.380027-135.358449l-0.512721-1.025443-2.563607-2.563607a42.094427 42.094427 0 0 0-59.475683 0 46.503831 46.503831 0 0 0-11.27987 17.945249L164.583569 536.491035a353.777765 353.777765 0 0 1 25.123349-475.805458 359.87915 359.87915 0 0 1 352.239601-90.751688 41.889338 41.889338 0 0 0 51.784861-28.199677 42.65842 42.65842 0 0 0-28.199677-52.297583 429.763077 429.763077 0 0 0-123.053136-17.432527 439.607328 439.607328 0 0 0-312.247332 129.205792 438.22298 438.22298 0 0 0 0 622.443779 8.100998 8.100998 0 0 0 3.076329 2.563607l1.025443 1.025443a41.786794 41.786794 0 0 0 58.450239 0l565.531703-563.480818a40.402446 40.402446 0 0 0 0-58.450239zM476.830901 564.17799a41.94061 41.94061 0 0 0-50.246697 67.166504 243.337576 243.337576 0 0 0 313.272775-22.559742 240.979058 240.979058 0 0 0 23.072463-312.247332 42.248243 42.248243 0 0 0-33.839613-16.919806 40.453718 40.453718 0 0 0-25.123348 8.716264 41.017712 41.017712 0 0 0-8.203543 58.450239 154.79059 154.79059 0 0 1-15.381642 202.524953 157.918191 157.918191 0 0 1-203.550395 14.86892z"  horiz-adv-x="1026" />

    
    <glyph glyph-name="cheliangzhuapaiji" unicode="&#59049;" d="M1000.727273-128h-139.636364a23.272727 23.272727 0 0 0 0 46.545455H977.454545v116.363636a23.272727 23.272727 0 0 0 46.545455 0v-139.636364a23.272727 23.272727 0 0 0-23.272727-23.272727z m0 837.818182a23.272727 23.272727 0 0 0-23.272728 23.272727V849.454545h-116.363636a23.272727 23.272727 0 0 0 0 46.545455h139.636364a23.272727 23.272727 0 0 0 23.272727-23.272727v-139.636364a23.272727 23.272727 0 0 0-23.272727-23.272727z m-73.076364-229.003637a33.373091 33.373091 0 0 0-20.014545-47.476363l-26.530909-10.705455a114.734545 114.734545 0 0 0 33.512727-80.523636v-199.214546a65.396364 65.396364 0 0 0-61.44-67.956363h-22.341818v-26.065455a33.745455 33.745455 0 1 0-67.025455 0v26.065455H260.654545v-26.065455a33.745455 33.745455 0 1 0-67.025454 0v26.065455h-22.341818a64.791273 64.791273 0 0 0-61.44 67.956363V342.109091a114.734545 114.734545 0 0 0 33.512727 80.523636l-26.996364 10.705455a33.652364 33.652364 0 0 0-20.014545 47.476363 29.090909 29.090909 0 0 0 43.287273 22.341819l47.010909-19.083637a15.499636 15.499636 0 0 0 4.654545-2.792727l59.578182 188.509091a120.599273 120.599273 0 0 0 112.64 87.04h297.425455a122.181818 122.181818 0 0 0 112.64-87.04l59.578181-188.509091a13.218909 13.218909 0 0 0 4.189091 2.792727l47.476364 19.083637a28.672 28.672 0 0 0 42.821818-22.341819zM726.109091 651.636364a69.026909 69.026909 0 0 1-65.163636 49.338181H363.52a68.701091 68.701091 0 0 1-65.163636-49.338181L236.916364 457.076364h550.632727z m138.24-309.061819a53.899636 53.899636 0 0 1-34.909091 51.2l-22.341818 6.981819H216.901818l-21.876363-6.981819a54.085818 54.085818 0 0 1-34.909091-51.665454v-199.214546a11.869091 11.869091 0 0 1 11.170909-12.101818h681.890909a11.869091 11.869091 0 0 1 11.170909 12.101818v199.68z m-159.650909-118.690909a57.437091 57.437091 0 0 0-25.134546 48.407273 50.781091 50.781091 0 1 0 101.003637 0 56.738909 56.738909 0 0 0-25.6-48.407273 46.545455 46.545455 0 0 0-50.269091 0z m-410.530909-7.447272a56.180364 56.180364 0 1 0 50.269091 55.854545 53.248 53.248 0 0 0-50.269091-55.854545z m125.672727 428.683636h184.32a27.927273 27.927273 0 0 0 0-55.854545H419.84a27.927273 27.927273 0 0 0 0 55.854545zM162.909091 849.454545H46.545455v-116.363636a23.272727 23.272727 0 0 0-46.545455 0v139.636364A23.272727 23.272727 0 0 0 23.272727 896h139.636364a23.272727 23.272727 0 0 0 0-46.545455z m-139.636364-791.272727a23.272727 23.272727 0 0 0 23.272728-23.272727V-81.454545h116.363636a23.272727 23.272727 0 0 0 0-46.545455h-139.636364a23.272727 23.272727 0 0 0-23.272727 23.272727v139.636364a23.272727 23.272727 0 0 0 23.272727 23.272727z"  horiz-adv-x="1024" />

    
    <glyph glyph-name="renlianzhuapaiji" unicode="&#59050;" d="M1000.727273-128h-139.636364a23.272727 23.272727 0 0 0 0 46.545455H977.454545v116.363636a23.272727 23.272727 0 0 0 46.545455 0v-139.636364a23.272727 23.272727 0 0 0-23.272727-23.272727z m0 837.818182a23.272727 23.272727 0 0 0-23.272728 23.272727V849.454545h-116.363636a23.272727 23.272727 0 0 0 0 46.545455h139.636364a23.272727 23.272727 0 0 0 23.272727-23.272727v-139.636364a23.272727 23.272727 0 0 0-23.272727-23.272727z m-116.829091-285.323637v-11.636363a45.056 45.056 0 0 0-5.585455-23.272727c-22.807273-232.727273-177.338182-471.505455-366.312727-471.505455s-343.505455 232.727273-366.778182 471.505455a29.184 29.184 0 0 0-5.585454 23.272727V453.818182C139.636364 709.818182 305.803636 849.454545 512 849.454545s371.898182-139.636364 371.898182-395.636363v-29.323637z m-400.756364-448.232727v290.909091a692.130909 692.130909 0 0 0-269.032727 58.181818c40.494545-174.545455 148.945455-325.818182 269.032727-349.090909z m0 815.010909A305.198545 305.198545 0 0 1 202.938182 500.363636a727.086545 727.086545 0 0 0 280.203636 58.181819v232.727272z m0-290.909091c-171.752727-6.050909-268.567273-52.596364-280.203636-81.454545v-12.101818c11.170909-28.858182 114.036364-75.403636 280.203636-80.989091V500.363636z m57.250909-524.101818c120.552727 23.272727 235.054545 168.96 269.032728 349.556364a595.269818 595.269818 0 0 0-269.032728-58.181818v-291.374546z m0 815.010909v-238.778182a632.645818 632.645818 0 0 0 280.669091-58.181818C809.425455 663.272727 700.974545 779.636364 540.392727 791.272727z m286.72-372.829091c-11.636364 29.323636-108.916364 75.869091-286.72 81.454546v-174.545455c177.803636 6.050909 275.083636 52.596364 286.72 87.505455v5.585454zM162.909091 849.454545H46.545455v-116.363636a23.272727 23.272727 0 0 0-46.545455 0v139.636364A23.272727 23.272727 0 0 0 23.272727 896h139.636364a23.272727 23.272727 0 0 0 0-46.545455z m-139.636364-791.272727a23.272727 23.272727 0 0 0 23.272728-23.272727V-81.454545h116.363636a23.272727 23.272727 0 0 0 0-46.545455h-139.636364a23.272727 23.272727 0 0 0-23.272727 23.272727v139.636364a23.272727 23.272727 0 0 0 23.272727 23.272727z"  horiz-adv-x="1024" />

    
    <glyph glyph-name="czujianguanli" unicode="&#59051;" d="M877.381818 640h-138.24a152.669091 152.669091 0 0 1 21.410909 77.730909 155.229091 155.229091 0 0 1-310.458182 0 152.669091 152.669091 0 0 1 21.41091-77.730909H333.730909A77.451636 77.451636 0 0 1 256 562.734545v-137.774545a152.669091 152.669091 0 0 1-77.730909 21.410909 155.229091 155.229091 0 0 1 0-310.458182 162.397091 162.397091 0 0 1 77.730909 21.410909v-137.774545A77.218909 77.218909 0 0 1 278.807273-34.909091a76.334545 76.334545 0 0 1 54.923636-22.807273h154.996364v77.265455H333.730909v137.774545a77.730909 77.730909 0 0 1-116.363636 67.025455 77.498182 77.498182 0 1 0 0 133.585454 76.474182 76.474182 0 0 1 77.265454 0 77.637818 77.637818 0 0 1 39.098182 67.025455V562.734545h137.774546a77.498182 77.498182 0 0 1 67.025454 116.363637 75.496727 75.496727 0 0 0-10.705454 38.632727 77.730909 77.730909 0 0 0 155.461818 0 80.802909 80.802909 0 0 0-11.170909-38.632727 77.358545 77.358545 0 0 1 0-77.730909 78.196364 78.196364 0 0 1 67.025454-38.632728h138.24v-116.363636a156.672 156.672 0 0 1-101.934545-38.632727h179.2V562.734545a76.288 76.288 0 0 1-77.265455 77.265455zM954.181818 81.454545h-372.363636a46.545455 46.545455 0 0 0 0 93.09091h372.363636a46.545455 46.545455 0 0 0 0-93.09091z m0 186.181819h-372.363636a46.545455 46.545455 0 0 0 0 93.090909h372.363636a46.545455 46.545455 0 0 0 0-93.090909z m-372.363636-279.272728h372.363636a46.545455 46.545455 0 0 0 0-93.090909h-372.363636a46.545455 46.545455 0 0 0 0 93.090909z"  horiz-adv-x="1024" />

    
    <glyph glyph-name="cshushili" unicode="&#59055;" d="M326.283636 826.647273a25.693091 25.693091 0 0 0 27.461819 23.272727h596.247272a25.227636 25.227636 0 0 0 26.996364-23.272727v-92.625455a22.853818 22.853818 0 0 0-7.912727-16.756363 30.952727 30.952727 0 0 0-19.083637-6.981819H353.745455a30.952727 30.952727 0 0 0-19.083637 6.981819 23.272727 23.272727 0 0 0-8.378182 16.756363V826.647273z m139.636364-271.825455a25.134545 25.134545 0 0 0 28.392727 15.36h455.68a24.482909 24.482909 0 0 0 27.927273-15.36v-61.905454a13.963636 13.963636 0 0 0-7.912727-11.170909 45.242182 45.242182 0 0 0-20.014546-4.189091h-455.214545a43.845818 43.845818 0 0 0-20.014546 4.189091 14.661818 14.661818 0 0 0-8.378181 11.170909V554.821818h-0.465455z m0-279.272727a24.855273 24.855273 0 0 0 28.392727 15.825454h455.68a24.250182 24.250182 0 0 0 27.927273-15.825454v-61.905455a13.358545 13.358545 0 0 0-7.912727-10.705454 39.749818 39.749818 0 0 0-20.014546-4.654546h-455.214545a38.632727 38.632727 0 0 0-20.014546 4.654546 13.963636 13.963636 0 0 0-8.378181 10.705454v61.905455h-0.465455z m0-279.272727a24.855273 24.855273 0 0 0 28.392727 15.825454h455.68a24.250182 24.250182 0 0 0 27.927273-15.825454v-61.905455a13.358545 13.358545 0 0 0-7.912727-10.705454 39.749818 39.749818 0 0 0-20.014546-4.654546h-455.214545a38.632727 38.632727 0 0 0-20.014546 4.654546 13.963636 13.963636 0 0 0-8.378181 10.705454v61.905455h-0.465455zM139.636364 570.181818h186.181818a46.545455 46.545455 0 0 0 0-93.090909H139.636364a46.545455 46.545455 0 0 0 0 93.090909zM93.090909 849.454545h93.090909a46.545455 46.545455 0 0 0 46.545455-46.545454v-93.090909a46.545455 46.545455 0 0 0-46.545455-46.545455H93.090909a46.545455 46.545455 0 0 0-46.545454 46.545455V802.909091a46.545455 46.545455 0 0 0 46.545454 46.545454z m46.545455-139.636363a46.545455 46.545455 0 0 0 46.545454-46.545455v-651.636363a46.545455 46.545455 0 0 0-93.090909 0V663.272727a46.545455 46.545455 0 0 0 46.545455 46.545455z m0-418.909091h186.181818a46.545455 46.545455 0 0 0 0-93.090909H139.636364a46.545455 46.545455 0 0 0 0 93.090909z m0-279.272727h186.181818a46.545455 46.545455 0 0 0 0-93.090909H139.636364a46.545455 46.545455 0 0 0 0 93.090909z"  horiz-adv-x="1024" />

    
    <glyph glyph-name="cjierupeizhi" unicode="&#59056;" d="M791.272727 243.898182h-114.967272a0.930909 0.930909 0 0 1-0.93091-0.465455 51.2 51.2 0 0 0-23.738181 0.465455h-7.447273a46.545455 46.545455 0 0 0-46.545455 46.545454v0.930909a47.243636 47.243636 0 0 0 7.912728 25.134546l-26.065455 95.883636-68.887273-250.88a64 64 0 0 0-65.163636-55.854545 39.377455 39.377455 0 0 0-24.203636 23.738182 118.178909 118.178909 0 0 0-35.374546 60.043636l-42.821818 155.927273L328.145455 290.909091a81.92 81.92 0 0 0-4.189091-9.309091 45.242182 45.242182 0 0 0-31.185455-34.443636 40.727273 40.727273 0 0 0-27.461818-4.189091c-0.930909 0.465455-1.396364 0.930909-2.327273 1.396363H93.090909a46.545455 46.545455 0 0 0 0 93.090909h148.48l52.130909 189.905455c-10.705455 43.752727 0 83.316364 24.669091 89.832727a39.936 39.936 0 0 0 36.305455-13.032727 34.397091 34.397091 0 0 0 9.774545 0 56.413091 56.413091 0 0 0 29.789091-72.610909l-1.396364-4.654546 59.112728-215.970909 40.494545 147.083637a63.581091 63.581091 0 0 0 65.163636 55.854545 34.117818 34.117818 0 0 0 19.083637-14.429091 46.917818 46.917818 0 0 0 24.203636 16.290909 48.034909 48.034909 0 0 0 58.647273-33.047272l39.563636-144.756364H791.272727a46.545455 46.545455 0 0 0 46.545455-46.545455v-0.930909a46.545455 46.545455 0 0 0-46.545455-46.545454zM884.363636-81.454545H139.636364a93.090909 93.090909 0 0 0-93.090909 93.090909v325.818181h93.090909v-232.261818a93.090909 93.090909 0 0 1 93.090909-93.090909h558.545454a93.090909 93.090909 0 0 1 93.090909 93.090909V662.807273a93.090909 93.090909 0 0 1-93.090909 93.090909H232.727273a93.090909 93.090909 0 0 1-93.090909-93.090909V477.090909H46.545455V756.363636a93.090909 93.090909 0 0 0 93.090909 93.090909h744.727272a93.370182 93.370182 0 0 0 93.090909-93.090909v-744.727272a93.370182 93.370182 0 0 0-93.090909-93.090909z"  horiz-adv-x="1024" />

    
    <glyph glyph-name="czhuanfapeizhi" unicode="&#59059;" d="M792.669091-81.454545H139.636364a92.299636 92.299636 0 0 0-93.090909 92.16V653.963636a92.578909 92.578909 0 0 0 93.090909 92.16h326.283636v-92.625454H232.727273c-51.2 0-93.090909 5.12-93.090909-45.614546v-296.494545h79.127272l46.08 170.821818c-9.309091 39.098182 0 74.472727 21.876364 80.523636a36.538182 36.538182 0 0 0 32.116364-12.101818 25.320727 25.320727 0 0 0 8.378181 0 50.176 50.176 0 0 0 26.53091-64.698182l-1.396364-4.654545 52.596364-193.629091 35.374545 132.189091a56.366545 56.366545 0 0 0 57.716364 49.803636 28.858182 28.858182 0 0 0 16.756363-13.032727 40.96 40.96 0 0 0 21.410909 14.894546 42.635636 42.635636 0 0 0 52.130909-29.789091l34.909091-129.861819h81.454546a41.239273 41.239273 0 0 0 40.96-41.890909v-0.465454a41.239273 41.239273 0 0 0-40.96-41.890909h-101.469091c-0.465455 0-0.465455-0.465455-0.930909-0.465455a39.889455 39.889455 0 0 0-20.945455 0.465455h-6.516363a41.611636 41.611636 0 0 0-41.425455 41.890909v0.465454a41.378909 41.378909 0 0 0 7.447273 22.341819l-23.272727 86.574545-60.974546-225.28a55.854545 55.854545 0 0 0-57.250909-50.269091 34.397091 34.397091 0 0 0-21.876364 21.410909 110.545455 110.545455 0 0 0-31.185454 53.527273l-37.701818 140.101818-13.032728-48.407273c-0.930909-3.258182-2.792727-5.585455-3.723636-8.378181a39.982545 39.982545 0 0 0-27.927273-31.185455 34.164364 34.164364 0 0 0-24.203636-3.723636c-0.465455 0-1.396364 0.930909-1.861818 0.930909H139.636364v-124.741818a93.090909 93.090909 0 0 1 93.090909-92.16h466.385454a93.090909 93.090909 0 0 1 93.556364 92.16v229.46909h93.090909v-321.62909a92.578909 92.578909 0 0 0-93.090909-92.16zM931.374545 527.36a46.173091 46.173091 0 0 0-46.545454 45.614545V709.818182l-200.145455-197.352727a52.503273 52.503273 0 0 0-72.610909-6.516364 50.362182 50.362182 0 0 0 6.516364 71.214545l182.458182 179.665455H698.181818a46.08 46.08 0 1 0 0 92.16h233.192727a46.266182 46.266182 0 0 0 46.545455-46.08v-229.934546a46.173091 46.173091 0 0 0-46.545455-45.614545z"  horiz-adv-x="1024" />

    
    <glyph glyph-name="czidianweihu" unicode="&#59060;" d="M922.763636 850.152727H101.236364a30.533818 30.533818 0 0 1-32.116364-32.116363v-868.072728a30.301091 30.301091 0 0 1 32.116364-32.116363h821.527272a30.068364 30.068364 0 0 1 32.116364 32.116363V818.036364a30.301091 30.301091 0 0 1-32.116364 32.116363z m-63.767272-93.090909v-558.545454h-698.181819v558.545454h698.181819z m-698.181819-744.727273v93.09091h698.181819v-93.09091h-698.181819zM253.905455 850.152727h325.818181v-558.545454c0-13.032727-4.189091-11.636364-23.272727-18.152728h-6.516364a33.978182 33.978182 0 0 0-25.6 12.567273l-102.865454 154.065455-102.4-154.065455c-6.516364-12.567273-5.585455-40.96-18.618182-40.96a82.432 82.432 0 0 0-46.545454 46.545455v558.545454z"  horiz-adv-x="1024" />

    
    <glyph glyph-name="gaokongxiangji" unicode="&#59061;" d="M972.8 844.8h-278.528v-101.888a32.2048 32.2048 0 0 1 15.36-26.112 1.024 1.024 0 0 1 1.024-0.512 447.6928 447.6928 0 1 0-417.28-0.512 31.488 31.488 0 0 1 17.408 26.624V844.8H51.2a25.6 25.6 0 0 0 0 51.2h921.6a25.6 25.6 0 0 0 0-51.2z m-598.016-13.824v-82.432a450.56 450.56 0 0 0 128 18.944 438.9888 438.9888 0 0 0 127.488-18.944V830.976H374.784z m316.928-844.8a374.8352 374.8352 0 0 0-56.32-26.112 374.8352 374.8352 0 0 1 56.32 26.112z m-61.44-28.16v361.472H374.784v-361.472a381.5936 381.5936 0 0 1 255.488 0z m-260.608 2.048a374.8352 374.8352 0 0 0-56.32 26.112 374.8352 374.8352 0 0 1 56.32-26.112z m-250.88 359.424a383.232 383.232 0 0 1 192-331.776v364.032a31.8976 31.8976 0 0 0 31.744 31.744h320a31.8976 31.8976 0 0 0 31.744-31.744v-364.032a383.5904 383.5904 0 1 1-575.488 331.776z m384-128A63.744 63.744 0 1 0 438.784 128a63.1296 63.1296 0 0 0 64 63.488z"  horiz-adv-x="1024" />

    
    <glyph glyph-name="RFID" unicode="&#59062;" d="M998.090601 361.741066a26.31006 26.31006 0 0 0-27.601078 28.046257 465.790453 465.790453 0 0 1-209.679159 387.75063 27.823668 27.823668 0 0 0 33.388401 44.517868 515.383358 515.383358 0 0 0 231.492914-432.268498 26.31006 26.31006 0 0 0-27.601078-28.046257z m-99.274846 28.046257a35.169116 35.169116 0 0 0-32.943222-28.046257 26.042953 26.042953 0 0 0-27.601078 28.046257 329.432223 329.432223 0 0 1-143.347535 271.558995 27.512042 27.512042 0 1 0 32.943222 44.072689 384.678897 384.678897 0 0 0 170.948613-315.631684z m-261.319885-228.821842h-249.300061a29.559864 29.559864 0 0 0-31.162508 31.607687v381.518128a29.559864 29.559864 0 0 0 31.162508 31.607687h249.300061a29.559864 29.559864 0 0 0 31.162508-31.607687v-381.518128a29.559864 29.559864 0 0 0-31.162508-31.607687z m-31.162508 381.07295h-186.975045v-317.857577h186.975045v317.857577z m-286.249891-479.457438a20.389184 20.389184 0 0 0-16.91679 5.787323 386.192505 386.192505 0 0 0-176.290757 321.419007 27.601078 27.601078 0 1 0 55.202156 0 331.435527 331.435527 0 0 1 148.689679-277.346318 26.977828 26.977828 0 0 0 5.787323-38.730545 14.156682 14.156682 0 0 0-16.471611-11.129467z m-33.388401-66.331623a32.097383 32.097383 0 0 0 11.129467-38.730546 37.973741 37.973741 0 0 0-27.601078-16.916789c-5.342144 0-11.129467 0-11.129467 5.787322a523.574646 523.574646 0 0 0-259.093992 448.74011 27.601078 27.601078 0 1 0 55.202156 0 458.75663 458.75663 0 0 1 231.492914-398.880097z"  horiz-adv-x="1025" />

    
    <glyph glyph-name="dianziweilan" unicode="&#59063;" d="M976.384 95.744l-26.112 81.408 60.416 21.504 21.504-86.016z m-92.16 188.928l70.656 49.152 44.032-63.488-70.144-49.152z m-86.016 121.344l70.144 49.152 44.544-63.488-70.656-49.152z m-88.064 128.512l70.144 49.152 44.544-63.488-70.656-49.152zM645.12 624.64a159.7952 159.7952 0 0 0-90.112-30.208 127.2832 127.2832 0 0 0-69.12 16.896l-215.04-249.344a141.1072 141.1072 0 0 0 34.816-94.208 89.1904 89.1904 0 0 0-8.704-38.912l154.624-103.424a155.7504 155.7504 0 0 0 111.616 47.616 146.3296 146.3296 0 0 0 146.432-150.528 150.528 150.528 0 0 0-301.056 0c0 8.704 4.608 16.896 4.608 25.6l-163.84 107.52a135.936 135.936 0 0 0-98.816-38.4 150.528 150.528 0 1 0 0 301.056 130.6112 130.6112 0 0 0 43.008-8.704l227.84 262.144a210.2272 210.2272 0 0 0-16.896 73.216 150.528 150.528 0 0 0 301.056 0 136.3456 136.3456 0 0 0-38.912-98.816l47.104 29.696 26.112-34.304-73.216-47.104zM563.2-41.984a63.2832 63.2832 0 0 1 64.512 64.512A64.512 64.512 0 1 1 563.2-41.984z m-408.064 374.272a64.512 64.512 0 1 1 0-129.024 63.2832 63.2832 0 0 1 64.512 64.512 66.56 66.56 0 0 1-64.512 64.512z m399.872 477.184a64.512 64.512 0 1 1 64.512-64.512 65.9456 65.9456 0 0 1-64.512 64.512z m188.928-706.56l26.112-81.92-40.96-13.312-26.112 82.432z m181.76-31.744l-77.824-24.064-25.6 81.92 77.824 24.576z"  horiz-adv-x="1032" />

    
    <glyph glyph-name="yonghu" unicode="&#59064;" d="M512 391.525084a252.294268 252.294268 0 1 0 257.918482 252.237458A255.646072 255.646072 0 0 0 512 391.525084z m0 440.279347a188.38275 188.38275 0 1 1 192.586708-188.041889A190.371108 190.371108 0 0 1 512 831.804431z m278.370168-958.956822c-18.747379 0-38.630962 0.568102-59.650751 1.136205-22.155993 0.568102-44.880088 1.136205-68.740388 1.136204H362.020971c-23.8603 0-46.584395-0.568102-68.740388-1.136204-20.451686-0.568102-40.335269-1.136205-59.650751-1.136205a270.416734 270.416734 0 0 0-141.457493 27.268914A146.684035 146.684035 0 0 0 29.112975 37.5973c0 195.42722 268.144325 320.409744 452.777599 320.409744h60.218852c184.633274 0 452.777599-124.982524 452.777599-320.409744 0-164.749691-132.935958-164.749691-204.516857-164.749691z m-428.349197 65.899876h299.958058c24.428402 0 47.7206-0.568102 70.444695-1.136205 20.451686-0.568102 39.767167-1.136205 57.946444-1.136204 110.779965 0 139.185084 21.019788 139.185083 101.122224 0 153.955746-232.921977 256.214175-387.445825 256.214174H481.890574c-153.955746 0-387.445825-102.258429-387.445825-256.214174a86.351562 86.351562 0 0 1 32.381836-83.511051 228.377158 228.377158 0 0 1 106.803247-17.611173c18.747379 0 38.06286 0.568102 57.946444 1.136204 22.724095 0.568102 46.016293 1.136205 70.444695 1.136205z m0 0"  horiz-adv-x="1024" />

    
    <glyph glyph-name="gaojing" unicode="&#59065;" d="M512-127.997727a209.533863 209.533863 0 0 0-128.436813 43.191141 180.323012 180.323012 0 0 0-57.967057 77.857714H151.694958a97.009575 97.009575 0 0 0-81.835845 43.191141 82.063167 82.063167 0 0 0 0 88.655499l76.721105 122.753768V494.295681A295.916144 295.916144 0 0 0 216.481669 676.72142a377.183685 377.183685 0 0 0 165.944909 117.639028 133.324232 133.324232 0 0 0 259.146844-0.568304 387.469996 387.469996 0 0 0 165.944909-118.775637 296.200296 296.200296 0 0 0 68.196538-181.28913v-246.075841l69.333147-111.387678a81.608524 81.608524 0 0 0 21.59557-55.69384 91.781174 91.781174 0 0 0-94.338544-87.51889h-174.469476a180.323012 180.323012 0 0 0-57.967057-77.857714 209.079219 209.079219 0 0 0-127.868509-43.191141zM418.22976 729.005433a302.565306 302.565306 0 0 1-140.939511-97.180067 222.889018 222.889018 0 0 1-53.988926-137.529685v-256.873626a37.280774 37.280774 0 0 0-5.11474-18.754047l-82.40415-131.278336h-0.568305a12.104885 12.104885 0 0 1 0.568305-13.071003 19.095031 19.095031 0 0 1 15.912525-7.956263h203.453005a38.531044 38.531044 0 0 0 38.0764-30.688442 122.696938 122.696938 0 0 1 236.982969 0 38.531044 38.531044 0 0 0 38.076401 30.688442h204.021309a16.594491 16.594491 0 0 1 17.617439 14.207612 12.900512 12.900512 0 0 1-3.409827 9.092872 17.78793 17.78793 0 0 0-5.11474 6.251349l-77.28941 122.753769a37.280774 37.280774 0 0 0-5.11474 18.754047V494.295681a222.945848 222.945848 0 0 1-52.852317 136.393076 300.178428 300.178428 0 0 1-138.666294 97.180067c-5.11474 1.704913-9.661176 2.841522-13.071003 3.978131a36.882961 36.882961 0 0 0-28.415224 35.234878v8.524567a54.784552 54.784552 0 0 1-108.546156 0v-7.956262a36.371487 36.371487 0 0 0-27.84692-35.234878c-4.546436-1.136609-7.956263-2.273218-11.36609-3.409827z"  horiz-adv-x="1024" />

    
    <glyph glyph-name="cshouye" unicode="&#59052;" d="M742.4-102.4v256h256v-256h-256z m0 614.4h256v-256h-256v256z m0 358.4h256v-256h-256v256z m-358.4-716.8h256v-256h-256v256z m0 358.4h256v-256h-256v256z m0 358.4h256v-256h-256v256z m-358.4-716.8h256v-256h-256v256z m0 358.4h256v-256h-256v256z m0 358.4h256v-256h-256v256z"  horiz-adv-x="1024" />

    
    <glyph glyph-name="cshishigaojing" unicode="&#59053;" d="M1009.4592-18.688a114.3296 114.3296 0 0 0-100.4032-58.4704H114.8928a115.3024 115.3024 0 0 0-100.4032 58.4704 113.3568 113.3568 0 0 0 4.2496 115.6096l397.312 694.9376a114.3296 114.3296 0 0 0 192.3584 0l397.312-694.9376a112.64 112.64 0 0 0 3.7376-115.6096z m-89.1392 113.3056L555.8272 727.8592a52.8896 52.8896 0 0 1-44.544 23.9616 54.0672 54.0672 0 0 1-44.5952-23.9616L102.7072 94.6176a50.3296 50.3296 0 0 1-1.8944-52.48 53.1968 53.1968 0 0 1 46.4384-26.7264H875.52a52.9408 52.9408 0 0 1 46.08 26.5728 51.2 51.2 0 0 1-1.28 52.6336zM460.8 179.2h102.4v-102.4H460.8v102.4z m0 409.6h102.4v-307.2H460.8V588.8z"  horiz-adv-x="1024" />

    
    <glyph glyph-name="shushouqi" unicode="&#59054;" d="M837.818182-128H186.181818a186.181818 186.181818 0 0 0-186.181818 186.181818V709.818182a186.181818 186.181818 0 0 0 186.181818 186.181818h651.636364a186.181818 186.181818 0 0 0 186.181818-186.181818v-651.636364a186.181818 186.181818 0 0 0-186.181818-186.181818z m93.090909 744.727273a186.181818 186.181818 0 0 1-186.181818 186.181818H279.272727a186.181818 186.181818 0 0 1-186.181818-186.181818v-465.454546a186.181818 186.181818 0 0 1 186.181818-186.181818h465.454546a186.181818 186.181818 0 0 1 186.181818 186.181818V616.727273zM558.545455 151.272727H465.454545V337.454545H279.272727V430.545455h186.181818V616.727273h93.09091v-186.181818h186.181818v-93.09091H558.545455v-186.181818z"  horiz-adv-x="1024" />

    
    <glyph glyph-name="ctongjibaobiao" unicode="&#59057;" d="M537.1392-128a487.0144 487.0144 0 0 0-486.656 486.4 22.6304 22.6304 0 0 0 22.7328 22.6304l440.32 2.304 0.768 438.528A22.6816 22.6816 0 0 0 537.1392 844.8a486.4 486.4 0 1 0 0-972.8z m68.2496 870.4l-2.56-429.2608a19.8656 19.8656 0 0 0-19.8144-19.8656L153.6 290.6624c10.24-202.9056 179.2-316.8768 384.4096-316.8768a385.024 385.024 0 0 1 384.512 384.6656C922.3168 563.8656 808.192 732.16 605.3888 742.4zM439.7056 435.2H20.48a20.48 20.48 0 0 0-20.48 20.48A440.32 440.32 0 0 0 439.552 896a20.48 20.48 0 0 0 20.48-20.48v-419.84a20.48 20.48 0 0 0-20.3264-20.48z"  horiz-adv-x="1024" />

    
    <glyph glyph-name="jinggaotishi" unicode="&#59058;" d="M512 237.714286A109.714286 109.714286 0 0 0 402.285714 347.428571v438.857143a109.714286 109.714286 0 0 0 219.428572 0v-438.857143A109.714286 109.714286 0 0 0 512 237.714286z m0-146.285715A109.714286 109.714286 0 1 0 402.285714-18.285714 109.714286 109.714286 0 0 0 512 91.428571z"  horiz-adv-x="1024" />

    
    <glyph glyph-name="shuzhankai" unicode="&#59066;" d="M837.818182-128H186.181818a186.181818 186.181818 0 0 0-186.181818 186.181818V709.818182a186.181818 186.181818 0 0 0 186.181818 186.181818h651.636364a186.181818 186.181818 0 0 0 186.181818-186.181818v-651.636364a186.181818 186.181818 0 0 0-186.181818-186.181818z m93.090909 744.727273a186.181818 186.181818 0 0 1-186.181818 186.181818H279.272727a186.181818 186.181818 0 0 1-186.181818-186.181818v-465.454546a186.181818 186.181818 0 0 1 186.181818-186.181818h465.454546a186.181818 186.181818 0 0 1 186.181818 186.181818V616.727273zM279.272727 430.545455h465.454546v-93.09091H279.272727V430.545455z"  horiz-adv-x="1024" />

    
    <glyph glyph-name="shushebei1" unicode="&#59067;" d="M1024 348.16L286.634667 742.656 156.501333 501.76l588.8-315.221333L1024 348.16z m-921.088-37.034667V216.746667h31.573333a61.781333 61.781333 0 0 1 30.976 7.68 61.866667 61.866667 0 0 1 22.272 22.698666l62.378667 107.690667-132.693333 70.058667 34.901333 65.536 419.157333-221.354667-34.901333-65.536-196.266667 103.68-64.085333-110.933333a163.328 163.328 0 0 0-59.733333-59.733334 163.072 163.072 0 0 0-82.176-21.674666H102.4v-90.453334H0V311.296h102.4z"  horiz-adv-x="1024" />

    
    <glyph glyph-name="cxitongguanli" unicode="&#59068;" d="M1013.191215 282.34472700000003a50.036364 50.036364 0 0 0-44.404364-48.034909h-4.654546a133.911273 133.911273 0 0 1-133.073454-134.423273 153.181091 153.181091 0 0 1 11.589818-51.2 61.114182 61.114182 0 0 0-20.340364-73.448727l-1.303272-0.884363-130.327273-72.657455-1.396364-0.605091a59.764364 59.764364 0 0 0-24.157091-4.887273 65.582545 65.582545 0 0 0-48.407272 20.805819 189.812364 189.812364 0 0 1-107.706182 63.534545 191.627636 191.627636 0 0 1-107.054546-62.324364 65.675636 65.675636 0 0 0-48.081454-20.433454 60.509091 60.509091 0 0 0-24.622546 5.073454l-1.303272 0.558546-125.672728 70.935273-1.210181 0.884363a61.207273 61.207273 0 0 0-20.247273 73.495273 153.6 153.6 0 0 1 11.589818 51.432727 133.864727 133.864727 0 0 1-133.073454 134.376727h-4.701091a50.408727 50.408727 0 0 0-43.613091 48.081455 484.910545 484.910545 0 0 0 0 202.612364 49.989818 49.989818 0 0 0 44.450909 48.034909h4.654545A133.864727 133.864727 0 0 1 193.199942 667.6945450000001 152.203636 152.203636 0 0 1 181.563578 719.1272730000001a61.114182 61.114182 0 0 0 20.433455 73.448727l1.303272 0.930909L335.768669 867.002182l1.396364 0.605091a60.974545 60.974545 0 0 0 24.296727 4.654545A66.885818 66.885818 0 0 0 409.636305 852.247273a188.462545 188.462545 0 0 1 105.37891-59.717818A188.090182 188.090182 0 0 1 619.649396 851.083636a66.839273 66.839273 0 0 0 47.802182 19.595637 61.533091 61.533091 0 0 0 24.762182-4.980364l1.349818-0.605091 127.953455-71.819636 1.256727-0.837818a61.253818 61.253818 0 0 0 20.293818-73.541819 152.948364 152.948364 0 0 1-11.589818-51.2 133.864727 133.864727 0 0 1 133.073455-134.423272h4.654545a49.989818 49.989818 0 0 0 44.404364-48.034909 485.096727 485.096727 0 0 0-0.418909-202.891637z m-103.33091 187.810909a39.703273 39.703273 0 0 1-35.234909 38.167273h-3.723636a106.356364 106.356364 0 0 0-105.611636 106.821818 121.762909 121.762909 0 0 0 9.309091 40.866909 48.686545 48.686545 0 0 1-16.104728 58.414546l-0.977454 0.698182-101.608728 57.064727-1.070545 0.465454a48.314182 48.314182 0 0 1-19.642182 3.956364 53.201455 53.201455 0 0 1-37.934545-15.546182 148.945455 148.945455 0 0 0-83.037091-46.545454 149.643636 149.643636 0 0 0-83.781818 47.429818 53.061818 53.061818 0 0 1-38.213819 15.918545 48.221091 48.221091 0 0 1-19.269818-3.863272l-1.117091-0.465455-105.146181-58.414545L265.810851 714.472727a48.593455 48.593455 0 0 1-16.197818-58.368 121.623273 121.623273 0 0 0 9.309091-40.913454 106.356364 106.356364 0 0 0-105.611637-106.821818h-3.537454a39.656727 39.656727 0 0 1-35.281455-38.167273 385.908364 385.908364 0 0 1 0-161.047273 39.982545 39.982545 0 0 1 34.629818-38.167273h4.189091a106.309818 106.309818 0 0 0 105.611637-106.775272 122.042182 122.042182 0 0 0-9.309091-40.866909 48.64 48.64 0 0 1 16.058182-58.414546l0.977454-0.744727 99.653818-56.32 1.024-0.465455a47.290182 47.290182 0 0 1 19.549091-4.049454 52.224 52.224 0 0 1 38.167273 16.244363 151.877818 151.877818 0 0 0 84.898909 49.524364 150.434909 150.434909 0 0 0 85.457455-50.501818 52.130909 52.130909 0 0 1 38.4-16.477091 47.104 47.104 0 0 1 19.176727 3.863273l1.117091 0.465454 103.284363 57.716364 1.024 0.744727a48.546909 48.546909 0 0 1 16.151273 58.321455 122.368 122.368 0 0 0-9.309091 40.913454 106.309818 106.309818 0 0 0 105.611637 107.054546h3.770181a39.703273 39.703273 0 0 1 35.234909 38.167272 386.327273 386.327273 0 0 1 0 160.768zM512.50176 183.85454500000003a188.555636 188.555636 0 1 0 186.647273 188.555637A187.810909 187.810909 0 0 0 512.50176 183.85454500000003z m0 301.428364a112.872727 112.872727 0 1 1 111.709091-112.872727A112.453818 112.453818 0 0 1 512.50176 485.469091z"  horiz-adv-x="1024" />

    
    <glyph glyph-name="cquanlianlu" unicode="&#59069;" d="M908.682484 453.680762a115.760762 115.760762 0 0 0-84.796953 195.047619 195.974095 195.974095 0 0 1-17.700571-12.678095 372.150857 372.150857 0 0 1-474.843429 95.427047 185.295238 185.295238 0 0 1-72.655238 65.340953 464.067048 464.067048 0 0 0 626.346667-113.517715 114.590476 114.590476 0 0 0 23.649524 2.438096 116.102095 116.102095 0 1 0 0-232.057905z m0 139.312762a23.210667 23.210667 0 1 1 23.259428-23.210667 23.259429 23.259429 0 0 1-23.259428 23.210667zM126.395246 454.558476c5.753905-1.560381 10.922667-4.193524 16.871619-5.266286a376.198095 376.198095 0 0 1-2.486857-41.691428 369.517714 369.517714 0 0 1 121.563428-273.993143 183.832381 183.832381 0 0 1-27.891809-78.262857 177.103238 177.103238 0 0 1 0-21.211429A463.725714 463.725714 0 0 0 46.37696 406.918095a450.706286 450.706286 0 0 0 5.558857 67.047619 117.028571 117.028571 0 1 0 74.459429-19.407238z m-8.972191 138.435048a23.210667 23.210667 0 1 1 23.259429-23.210667 23.210667 23.210667 0 0 1-23.259429 23.210667z m394.971429 34.962286a219.721143 219.721143 0 1 0-219.428572-219.721143 219.428571 219.428571 0 0 0 219.428572 219.574857z m-0.536381-351.085715a131.413333 131.413333 0 1 1-131.657143 131.364572 131.657143 131.657143 0 0 1 131.657143-131.510857z m-22.089143-148.333714a115.858286 115.858286 0 0 0 114.93181-101.863619c0 7.119238 0.633905 14.287238 0 21.26019a371.858286 371.858286 0 0 1 270.628571 275.309715 175.250286 175.250286 0 0 1 93.086476-4.291048 464.847238 464.847238 0 0 0-381.610667-370.151619 116.199619 116.199619 0 1 0-97.03619 179.785143z m0-139.312762a23.259429 23.259429 0 1 1-23.259429 23.210667 23.210667 23.210667 0 0 1 23.259429-23.405715z"  horiz-adv-x="1025" />

    
    <glyph glyph-name="putongtishi" unicode="&#59070;" d="M512-128A109.714286 109.714286 0 0 0 402.285714-18.285714v438.857143a109.714286 109.714286 0 0 0 219.428572 0v-438.857143A109.714286 109.714286 0 0 0 512-128z m0 804.571429A109.714286 109.714286 0 1 0 621.714286 786.285714 109.714286 109.714286 0 0 0 512 676.571429z"  horiz-adv-x="1024" />

    
    <glyph glyph-name="chenggongtishi" unicode="&#59071;" d="M1363.028591 669.829565l-755.533913-755.97913a134.455652 134.455652 0 0 0-188.861217 0L40.821983 292.285217a133.565217 133.565217 0 1 0 188.861217 188.772174l283.336348-283.158261L1174.167374 858.601739a133.565217 133.565217 0 0 0 188.861217-188.772174z"  horiz-adv-x="1403" />

    
    <glyph glyph-name="cyulanguanli" unicode="&#59072;" d="M1012.411578 264.890182l-450.048-283.368727a85.085091 85.085091 0 0 0-100.724363 0L11.63776 264.890182a28.485818 28.485818 0 0 0-11.682909 23.04V434.688a28.485818 28.485818 0 0 0 11.682909 23.272727l450.001455 329.960728a86.341818 86.341818 0 0 0 100.724363 0l450.048-329.914182a28.765091 28.765091 0 0 0 11.682909-23.272728v-146.757818a28.439273 28.439273 0 0 0-11.682909-23.086545z m-81.547636 149.643636L527.501033 705.629091a26.670545 26.670545 0 0 1-30.859637 0l-403.362909-291.095273v-106.635636l403.362909-244.549818a26.996364 26.996364 0 0 1 30.859637 0l403.362909 244.549818v106.635636zM326.378124 383.76727300000005a186.461091 186.461091 0 1 0 186.461091-186.181818 186.600727 186.600727 0 0 0-186.461091 186.181818z m279.645091 0a93.090909 93.090909 0 1 1-93.09091-93.090909A93.090909 93.090909 0 0 1 605.976669 384z"  horiz-adv-x="1024" />

    
    <glyph glyph-name="cyunweiguanli" unicode="&#59073;" d="M533.796086 107.355251A404.913361 404.913361 0 0 0 0.102472 491.086639a384.754672 384.754672 0 0 0 20.465674 117.165984 63.904067 63.904067 0 0 0 106.012191 25.582093l106.677326-106.72849A80.890577 80.890577 0 0 1 347.609617 641.509343L230.801782 758.419506A63.955231 63.955231 0 0 0 251.267456 862.589787a395.806136 395.806136 0 0 0 153.492555 33.410213 405.220346 405.220346 0 0 0 383.731388-534.102928L971.14754 178.98511A179.995603 179.995603 0 0 0 716.86154-75.812531l-183.116618 183.167782zM85.29084 491.086639a319.724993 319.724993 0 0 1 421.337064-303.045468l50.038573 16.833017 220.261817-220.364145a94.807235 94.807235 0 0 1 133.999 134.101329l-220.261816 220.415309 16.833016 50.089738a319.776157 319.776157 0 0 1-395.243329 408.08554l95.421205-95.421206a166.078945 166.078945 0 1 0-234.84361-234.945937l-82.374338 82.425502a323.818127 323.818127 0 0 1-5.116418-58.173679z m0 0"  horiz-adv-x="1024" />

    
    <glyph glyph-name="fanhui" unicode="&#59074;" d="M431.3856 691.7632v-187.904l46.08-0.6656c319.9488-2.7136 499.8144-142.6432 546.5088-426.496-175.6672 199.68-377.8048 200.2432-546.5088 200.2432H430.7712v-186.5216L0.0256 390.7584l431.4624 301.056"  horiz-adv-x="1024" />

    
    <glyph glyph-name="weikakou" unicode="&#59075;" d="M562.918541 844.313843h-51.174413V640.127936h51.174413V844.313843z m-51.174413-972.313843h51.174413v205.721139h-51.174413v-205.721139z m-358.22089 1.023488h51.686157V230.732634H153.523238v-357.709146zM205.209395 896H153.523238v-357.709145h51.686157V896zM921.13943 896h-51.174413v-357.709145h51.174413V896z m-51.174413-1022.976512h51.174413V230.732634h-51.174413v-357.709146zM0 435.430285v-307.046477h51.174413v204.697651h972.313843v-204.697651h51.174413V435.430285H0z"  horiz-adv-x="1075" />

    
    <glyph glyph-name="dianzijingcha" unicode="&#59076;" d="M914.807393-127.40131a33.03312 33.03312 0 0 0-12.508239 0c-9.096901 1.648813-220.599838 43.949401-220.599838 372.290654V333.64098a35.648479 35.648479 0 0 0 37.524715 35.477912 309.749463 309.749463 0 0 1 85.283443 7.277521 229.753594 229.753594 0 0 1 84.714886 56.855628 34.113377 34.113377 0 0 0 38.661827 0 292.920197 292.920197 0 0 1 86.989112-56.855628 307.873227 307.873227 0 0 1 84.714886-7.334377h2.274225a34.113377 34.113377 0 0 0 23.879364-9.551745 35.023067 35.023067 0 0 0 11.371126-25.983022v-88.751636c0-328.00012-213.208606-370.300707-222.305507-372.176943z m163.744209 425.052677a30.588328 30.588328 0 0 1-7.959788 20.866016 26.039878 26.039878 0 0 1-18.193801 7.618654h-1.705669a137.647476 137.647476 0 0 0-127.925163 51.511199 24.049931 24.049931 0 0 1-28.996371 0 172.727399 172.727399 0 0 0-63.678304-45.484502 216.051388 216.051388 0 0 0-63.678303-5.685563 24.220498 24.220498 0 0 1-19.330914-7.561799 28.712092 28.712092 0 0 1-8.528344-20.866015v-71.240103c0-263.468982 158.058647-297.468648 164.881322-298.776327a22.287406 22.287406 0 0 1 9.096901 0c6.822675 1.307679 166.018435 35.307345 166.018434 298.776327v71.069536z m-100.065906-255.850327l-70.500979 51.511199-69.932423-51.170066 24.447921 86.022566-67.658198 54.524548 85.283442 1.591957 28.427815 84.885453 27.859257-85.283442 85.283443-2.046803-68.226754-54.240269z m-240.499307 479.804647L215.483164 836.074168a7.220665 7.220665 0 0 1-11.371126-3.752472l-119.396819-197.68702a7.163809 7.163809 0 0 1 3.979894-11.371125l479.292947-285.187832c0-24.44792 1.705669-47.247027 3.411337-69.534433l-513.406323 305.314724a67.203353 67.203353 0 0 0-23.310808 90.969005L154.079085 862.455179a68.624743 68.624743 0 0 0 92.106118 22.742252s187.055017-112.574144 559.459383-338.745834a196.663618 196.663618 0 0 0-53.44429-23.083385c-4.54845-0.682268-9.096901-0.852834-14.213907-1.705669zM77.323987 205.14726h210.934381l64.815417 78.460767L42.642054 475.040928l22.742251 34.113377 515.680549-319.41492c3.411338-19.274058 7.959788-37.126725 12.508239-54.467692l-191.603468 117.918573-86.420555-105.126057H77.323987v-163.403076H0.000333V368.550336h77.323654v-163.459932z"  horiz-adv-x="1137" />

    
    <glyph glyph-name="zanting" unicode="&#59077;" d="M812.09611-127.993417a64.876834 64.876834 0 0 0-65.827678 63.999131V831.993554A64.876834 64.876834 0 0 0 812.09611 895.992686a64.876834 64.876834 0 0 0 65.827678-63.999132v-895.98784a64.876834 64.876834 0 0 0-65.827678-63.999131zM211.89397-127.993417a64.876834 64.876834 0 0 0-65.827678 63.999131V831.993554a65.827678 65.827678 0 0 0 131.289646 0v-895.98784A64.876834 64.876834 0 0 0 212.332821-127.993417z"  horiz-adv-x="1024" />

    
    <glyph glyph-name="bofang" unicode="&#59078;" d="M175.418812-127.120887H142.580062a87.765034 87.765034 0 0 0-32.911888 67.140251V829.371711a65.823776 65.823776 0 1 0 131.647551 0v-771.893476l476.271586 318.806487-361.299391 285.236361a77.086955 77.086955 0 0 0-16.455944 100.710377A73.137529 73.137529 0 0 0 438.421365 778.979954l443.359698-335.628118a54.926284 54.926284 0 0 0 0-100.637239l-656.921282-453.452678a59.314536 59.314536 0 0 0-49.221557-16.821631z"  horiz-adv-x="1024" />

    
    <glyph glyph-name="duankai" unicode="&#59079;" d="M763.972267 145.544533h-143.36a37.819733 37.819733 0 0 0 0 75.639467h143.36a163.84 163.84 0 0 1 0 326.4512h-143.36a37.819733 37.819733 0 0 0 0 75.639467h143.36a239.274667 239.274667 0 0 0 0-477.730134zM643.959467 710.519467a32.631467 32.631467 0 0 0-46.626134-13.653334 39.1168 39.1168 0 0 0-12.4928 50.858667l68.266667 129.024a32.5632 32.5632 0 0 0 46.626133 13.653333 39.1168 39.1168 0 0 0 12.4928-50.858666z m-273.066667-819.2a32.631467 32.631467 0 0 0-46.626133-13.653334 39.1168 39.1168 0 0 0-12.4928 50.858667l68.266666 129.024a32.5632 32.5632 0 0 0 46.626134 13.653333 39.1168 39.1168 0 0 0 12.4928-50.858666z m55.773867 805.546666a32.631467 32.631467 0 0 0-46.626134 13.653334l-68.266666 128.955733A39.1168 39.1168 0 0 0 324.266667 890.333867a32.5632 32.5632 0 0 0 46.626133-13.653334l68.266667-129.024a39.1168 39.1168 0 0 0-12.4928-50.7904z m13.1072-111.479466a37.751467 37.751467 0 0 0-37.546667-37.751467h-143.36a163.84 163.84 0 0 1 0-326.519467h143.36a37.819733 37.819733 0 0 0 0-75.639466h-143.36a239.342933 239.342933 0 0 0 0 477.866666h143.36a37.751467 37.751467 0 0 0 37.546667-37.956266z m157.559466-514.2528a32.5632 32.5632 0 0 0 46.626134-13.653334l68.266666-129.024a39.1168 39.1168 0 0 0-12.4928-50.858666 32.631467 32.631467 0 0 0-46.626133 13.653333l-68.266667 128.955733a39.1168 39.1168 0 0 0 12.4928 50.926934z"  horiz-adv-x="1024" />

    
    <glyph glyph-name="lianjie" unicode="&#59080;" d="M763.972267 145.749333h-143.36a37.819733 37.819733 0 0 0-37.546667 37.546667 37.341867 37.341867 0 0 0 37.546667 37.546667h143.36a163.84 163.84 0 0 1 0 326.997333h-143.36a37.819733 37.819733 0 0 0-37.546667 37.546667 37.341867 37.341867 0 0 0 37.546667 37.546666h143.36a238.933333 238.933333 0 0 0 0-477.184zM308.087467 384a38.365867 38.365867 0 0 0 41.642666 34.133333h325.632a38.2976 38.2976 0 0 0 41.642667-34.133333 38.775467 38.775467 0 0 0-41.642667-34.133333h-325.632a38.843733 38.843733 0 0 0-41.642666 34.133333z m94.139733 163.84h-143.36a163.84 163.84 0 0 1 0-326.997333h143.36a37.2736 37.2736 0 0 0 37.4784-37.546667 37.751467 37.751467 0 0 0-37.4784-37.546667h-143.36a238.933333 238.933333 0 0 0 0 477.184h143.36a37.341867 37.341867 0 0 0 37.546667-37.546666 37.751467 37.751467 0 0 0-37.546667-37.546667z"  horiz-adv-x="1024" />

    


  </font>
</defs>
</svg>
